<?xml version="1.0" encoding="UTF-8" standalone="no"?>
<svg
   xmlns:dc="http://purl.org/dc/elements/1.1/"
   xmlns:cc="http://creativecommons.org/ns#"
   xmlns:rdf="http://www.w3.org/1999/02/22-rdf-syntax-ns#"
   xmlns:svg="http://www.w3.org/2000/svg"
   xmlns="http://www.w3.org/2000/svg"
   viewBox="0 0 350 349.99999"
   height="350"
   width="350"
   xml:space="preserve"
   id="svg4193"
   version="1.1"><metadata
     id="metadata4199"><rdf:RDF><cc:Work
         rdf:about=""><dc:format>image/svg+xml</dc:format><dc:type
           rdf:resource="http://purl.org/dc/dcmitype/StillImage" /><dc:title></dc:title></cc:Work></rdf:RDF></metadata><defs
     id="defs4197"><clipPath
       id="clipPath4209"
       clipPathUnits="userSpaceOnUse"><path
         id="path4207"
         d="M 0,841.89 H 595.28 V 0 H 0 Z" /></clipPath></defs><g
     style="display:inline"
     transform="matrix(1.3333333,0,0,-1.3333333,0,349.99998)"
     id="g4201"><g
       transform="translate(-167.04417,-290.02261)"
       id="g4203"><g
         clip-path="url(#clipPath4209)"
         id="g4205"><g
           transform="translate(307.1846,449.1249)"
           id="g4211"><path
             id="path4213"
             style="fill:#92a5b1;fill-opacity:1;fill-rule:nonzero;stroke:none"
             d="m 0,0 c -1.591,-3.9 -3.113,-7.769 -4.453,-11.226 0.243,0.057 0.489,0.103 0.73,0.165 C 3.804,-9.127 9.223,-4.285 13.099,1.084 9.813,0.412 6.119,-0.046 2.104,-0.059 1.396,-0.061 0.699,-0.026 0,0" /></g><g
           transform="translate(336.2012,458.7343)"
           id="g4215"><path
             id="path4217"
             style="fill:#92a5b1;fill-opacity:1;fill-rule:nonzero;stroke:none"
             d="m 0,0 c -0.063,-1.219 -0.25,-2.748 -0.25,-2.748 0,0 -4.91,-3.077 -12.875,-5.127 -4.124,-6.935 -10.821,-13.612 -21.549,-16.077 -2.141,-5.564 -3.603,-9.448 -3.744,-9.474 -0.111,0.136 0.636,3.618 2.214,9.16 -0.558,-0.103 -1.11,-0.213 -1.689,-0.295 -18.138,-2.533 -36.67,6.433 -36.67,6.433 0,0 -0.097,1.23 -0.283,2.777 -0.187,1.548 -0.298,2.797 -0.298,2.797 0,0 21.907,-11.66 39.837,-8.646 1.028,3.425 2.31,7.412 3.836,11.739 -15.343,1.276 -27.765,8.673 -27.765,8.891 0.426,0.122 13.694,-6.236 28.692,-6.301 2.472,6.784 5.514,14.265 9.113,21.687 4.76,9.816 12.699,17.004 18.443,19.875 0,0 0.271,-1.563 0.458,-2.668 0.187,-1.105 0.417,-2.584 0.417,-2.584 0,0 -7.813,-2.846 -16.822,-17.409 -2.579,-4.169 -5.828,-11.379 -8.93,-18.843 1.902,0.091 3.818,0.269 5.732,0.608 3.39,0.602 6.523,1.593 9.373,2.72 4.229,7.776 5.675,15.139 5.912,15.246 0.172,-0.141 -0.35,-6.715 -3.56,-14.26 C -5.741,-0.407 -2.076,1.946 0.05,3.38 0.05,3.38 0.1,1.911 0,0 m -0.814,39.532 c 0,0 -17.227,3.933 -37.093,3.933 -0.255,0 -0.731,-0.001 -0.731,-0.001 C -60.84,43.393 -78.85,25.405 -78.931,3.202 -78.932,2.949 -78.932,2.695 -78.932,2.44 c 0,-19.866 3.932,-37.093 3.932,-37.093 0,0 17.227,-3.932 37.093,-3.932 0.255,0 0.731,10e-4 0.731,10e-4 22.202,0.071 40.212,18.059 40.293,40.262 10e-4,0.253 10e-4,0.507 10e-4,0.762 0,19.866 -3.932,37.092 -3.932,37.092" /></g><g
           transform="translate(205.9263,367.3895)"
           id="g4219"><path
             id="path4221"
             style="fill:#92a5b1;fill-opacity:1;fill-rule:nonzero;stroke:none"
             d="m 0,0 c -0.36,0 -0.676,0.331 -0.676,0.708 v 14.43 L -8.019,6.326 C -8.214,6.13 -8.41,6.043 -8.608,6.043 c -0.314,0 -0.538,0.11 -0.658,0.293 l -7.367,8.835 V 0.708 C -16.633,0.312 -16.93,0 -17.311,0 c -0.383,0 -0.708,0.324 -0.708,0.708 v 16.525 c 0,0.371 0.337,0.708 0.708,0.708 0.036,0 0.114,0 0.198,-0.04 0.134,-0.027 0.246,-0.101 0.339,-0.162 l 0.084,-0.078 8.05,-9.768 8.052,9.768 c 0.095,0.097 0.226,0.207 0.392,0.24 0.084,0.04 0.16,0.04 0.196,0.04 0.438,0 0.708,-0.366 0.708,-0.708 V 0.708 C 0.708,0.303 0.404,0 0,0" /></g><g
           transform="translate(228.7998,381.7582)"
           id="g4223"><path
             id="path4225"
             style="fill:#92a5b1;fill-opacity:1;fill-rule:nonzero;stroke:none"
             d="m 0,0 c -3.349,0 -6.075,-2.907 -6.075,-6.477 0,-3.587 2.726,-6.506 6.075,-6.506 3.349,0 6.072,2.919 6.072,6.506 C 6.072,-2.907 3.349,0 0,0 m 6.782,-14.369 c -0.419,0 -0.71,0.291 -0.71,0.708 v 2.62 C 4.686,-13.12 2.449,-14.369 0,-14.369 c -4.114,0 -7.46,3.541 -7.46,7.892 0,4.353 3.346,7.894 7.46,7.894 2.399,0 4.678,-1.28 6.072,-3.342 v 2.633 c 0,0.343 0.284,0.709 0.71,0.709 0.398,0 0.676,-0.375 0.676,-0.709 v -14.369 c 0,-0.411 -0.285,-0.708 -0.676,-0.708" /></g><g
           transform="translate(261.8228,382.4994)"
           id="g4227"><path
             id="path4229"
             style="fill:#92a5b1;fill-opacity:1;fill-rule:nonzero;stroke:none"
             d="M 0,0 -0.002,-0.002 Z M -0.019,-0.076 V -0.095 Z M 0.543,-0.28 0.542,-0.282 Z m -0.659,-14.83 h -10.499 c -0.08,0 -0.207,0 -0.316,0.076 -0.078,0.04 -0.152,0.08 -0.211,0.137 -0.256,0.263 -0.256,0.669 0,0.929 l 9.649,13.227 h -9.122 c -0.379,0 -0.676,0.311 -0.676,0.707 0,0.335 0.278,0.71 0.676,0.71 H -0.208 C 0.04,0.676 0.158,0.625 0.304,0.529 0.479,0.415 0.535,0.247 0.573,0.135 L 0.592,0.029 0.546,-0.28 C 0.495,-0.444 0.392,-0.545 0.318,-0.622 l -9.587,-13.102 h 9.153 c 0.39,0 0.708,-0.303 0.708,-0.678 0,-0.417 -0.291,-0.708 -0.708,-0.708" /></g><g
           transform="translate(288.2603,382.4994)"
           id="g4231"><path
             id="path4233"
             style="fill:#92a5b1;fill-opacity:1;fill-rule:nonzero;stroke:none"
             d="M 0,0 -0.002,-0.002 Z M -0.019,-0.076 V -0.095 Z M 0.543,-0.28 0.541,-0.282 Z m -0.659,-14.83 h -10.499 c -0.08,0 -0.207,0 -0.316,0.076 -0.078,0.04 -0.152,0.08 -0.211,0.137 -0.257,0.263 -0.257,0.669 0,0.929 l 9.649,13.227 h -9.122 c -0.38,0 -0.677,0.311 -0.677,0.707 0,0.335 0.278,0.71 0.677,0.71 H -0.208 C 0.04,0.676 0.158,0.625 0.303,0.529 0.478,0.415 0.535,0.247 0.573,0.135 L 0.592,0.029 0.545,-0.28 C 0.495,-0.444 0.392,-0.545 0.318,-0.622 L -9.27,-13.724 h 9.154 c 0.39,0 0.708,-0.303 0.708,-0.678 0,-0.417 -0.291,-0.708 -0.708,-0.708" /></g><g
           transform="translate(310.5859,381.7894)"
           id="g4235"><path
             id="path4237"
             style="fill:#92a5b1;fill-opacity:1;fill-rule:nonzero;stroke:none"
             d="m 0,0 c -3.349,0 -6.074,-2.919 -6.074,-6.508 0,-3.587 2.725,-6.506 6.074,-6.506 3.366,0 6.104,2.919 6.104,6.506 C 6.104,-2.919 3.366,0 0,0 m 0,-14.4 c -4.113,0 -7.46,3.541 -7.46,7.892 0,4.353 3.347,7.894 7.46,7.894 4.13,0 7.49,-3.541 7.49,-7.894 C 7.49,-10.859 4.13,-14.4 0,-14.4" /></g><g
           transform="translate(333.3965,367.3895)"
           id="g4239"><path
             id="path4241"
             style="fill:#92a5b1;fill-opacity:1;fill-rule:nonzero;stroke:none"
             d="m 0,0 c -0.404,0 -0.708,0.303 -0.708,0.708 v 17.25 c 0,0.404 0.304,0.707 0.708,0.707 0.381,0 0.678,-0.311 0.678,-0.707 V 0.708 C 0.678,0.312 0.381,0 0,0" /></g><g
           transform="translate(351.2422,376.4227)"
           id="g4243"><path
             id="path4245"
             style="fill:#92a5b1;fill-opacity:1;fill-rule:nonzero;stroke:none"
             d="M 0,0 H 12.361 C 11.837,3.065 9.249,5.335 6.211,5.335 3.141,5.335 0.527,3.065 0,0 M 6.211,-9.033 C 1.97,-8.97 -1.4,-5.505 -1.464,-1.146 v 0.009 c 0.064,4.425 3.436,7.89 7.675,7.89 4.03,0 7.288,-3.13 7.583,-7.284 L 13.79,-0.725 C 13.741,-1.034 13.476,-1.354 13.118,-1.354 H -0.076 c 0.11,-3.463 2.89,-6.266 6.289,-6.293 2.109,0 4.049,1.103 5.188,2.95 0.204,0.301 0.554,0.384 0.939,0.213 0.181,-0.105 0.287,-0.255 0.327,-0.43 0.042,-0.187 0.006,-0.387 -0.099,-0.545 -1.424,-2.203 -3.86,-3.574 -6.357,-3.574" /></g><g
           transform="translate(391.1362,367.3895)"
           id="g4247"><path
             id="path4249"
             style="fill:#92a5b1;fill-opacity:1;fill-rule:nonzero;stroke:none"
             d="m 0,0 c -0.392,0 -0.676,0.297 -0.676,0.708 v 8.639 c 0,2.787 -2.254,5.053 -5.021,5.053 -2.787,0 -5.053,-2.266 -5.053,-5.053 V 0.708 c 0,-0.18 -0.065,-0.348 -0.181,-0.464 C -11.02,0.103 -11.209,0 -11.426,0 h -0.127 l -0.164,0.067 c -0.116,0.025 -0.192,0.101 -0.238,0.145 l -0.099,0.15 c -0.052,0.084 -0.082,0.187 -0.082,0.284 v 14.462 c 0,0.393 0.299,0.678 0.71,0.678 0.398,0 0.676,-0.278 0.676,-0.678 v -1.78 c 1.211,1.538 3.069,2.458 5.053,2.458 3.532,0 6.405,-2.888 6.405,-6.439 V 0.708 C 0.708,0.324 0.383,0 0,0" /></g><g
           transform="translate(408.0029,385.3319)"
           id="g4251"><path
             id="path4253"
             style="fill:#92a5b1;fill-opacity:1;fill-rule:nonzero;stroke:none"
             d="m 0,0 c -0.396,0 -0.708,0.297 -0.708,0.678 v 0.741 c 0,0.417 0.291,0.71 0.708,0.71 0.375,0 0.678,-0.317 0.678,-0.71 V 0.678 C 0.678,0.322 0.356,0 0,0 m 0,-17.942 c -0.404,0 -0.708,0.303 -0.708,0.707 v 13.173 c 0,0.406 0.285,0.678 0.708,0.678 0.387,0 0.678,-0.291 0.678,-0.678 v -13.173 c 0,-0.377 -0.316,-0.707 -0.678,-0.707" /></g><g
           transform="translate(215.9941,349.5521)"
           id="g4255"><path
             id="path4257"
             style="fill:#92a5b1;fill-opacity:1;fill-rule:nonzero;stroke:none"
             d="m 0,0 c -0.681,0 -1.326,-0.187 -1.935,-0.558 -0.61,-0.373 -1.086,-0.875 -1.428,-1.505 -0.344,-0.631 -0.514,-1.334 -0.514,-2.11 0,-1.147 0.378,-2.117 1.137,-2.907 0.758,-0.791 1.671,-1.186 2.74,-1.186 0.713,0 1.375,0.181 1.982,0.544 0.608,0.365 1.081,0.862 1.422,1.493 0.34,0.631 0.51,1.331 0.51,2.103 0,0.766 -0.17,1.46 -0.51,2.08 -0.341,0.619 -0.82,1.115 -1.437,1.488 C 1.349,-0.187 0.693,0 0,0 m -0.04,0.939 c 1.393,0 2.559,-0.488 3.497,-1.464 0.939,-0.976 1.408,-2.178 1.408,-3.604 0,-1.414 -0.468,-2.614 -1.405,-3.599 -0.936,-0.985 -2.078,-1.478 -3.425,-1.478 -1.365,0 -2.516,0.491 -3.455,1.471 -0.938,0.981 -1.408,2.167 -1.408,3.559 0,0.928 0.214,1.788 0.642,2.581 0.427,0.792 1.01,1.413 1.748,1.861 0.739,0.449 1.538,0.673 2.398,0.673" /></g><g
           transform="translate(231.27,341.5023)"
           id="g4259"><path
             id="path4261"
             style="fill:#92a5b1;fill-opacity:1;fill-rule:nonzero;stroke:none"
             d="M 0,0 H 1.063 C 2.334,0 3.216,0.083 3.708,0.249 4.4,0.486 4.944,0.911 5.341,1.525 5.737,2.14 5.935,2.892 5.935,3.779 5.935,4.71 5.72,5.506 5.29,6.167 4.861,6.827 4.262,7.279 3.496,7.524 2.92,7.709 1.972,7.801 0.651,7.801 H 0 Z M -0.881,-0.913 V 8.746 H 1.026 C 2.401,8.746 3.399,8.629 4.021,8.398 4.913,8.069 5.61,7.501 6.113,6.69 6.616,5.881 6.867,4.916 6.867,3.795 6.867,2.828 6.667,1.976 6.27,1.241 5.871,0.505 5.354,-0.037 4.719,-0.387 4.082,-0.737 3.191,-0.913 2.045,-0.913 Z" /></g><g
           transform="translate(252.0239,349.5521)"
           id="g4263"><path
             id="path4265"
             style="fill:#92a5b1;fill-opacity:1;fill-rule:nonzero;stroke:none"
             d="m 0,0 c -0.681,0 -1.326,-0.187 -1.935,-0.558 -0.61,-0.373 -1.086,-0.875 -1.429,-1.505 -0.343,-0.631 -0.513,-1.334 -0.513,-2.11 0,-1.147 0.378,-2.117 1.136,-2.907 0.759,-0.791 1.672,-1.186 2.741,-1.186 0.713,0 1.375,0.181 1.982,0.544 0.608,0.365 1.081,0.862 1.422,1.493 0.34,0.631 0.51,1.331 0.51,2.103 0,0.766 -0.17,1.46 -0.51,2.08 -0.341,0.619 -0.82,1.115 -1.437,1.488 C 1.349,-0.187 0.693,0 0,0 m -0.041,0.939 c 1.394,0 2.56,-0.488 3.498,-1.464 0.939,-0.976 1.408,-2.178 1.408,-3.604 0,-1.414 -0.468,-2.614 -1.405,-3.599 -0.936,-0.985 -2.078,-1.478 -3.425,-1.478 -1.365,0 -2.516,0.491 -3.455,1.471 -0.938,0.981 -1.408,2.167 -1.408,3.559 0,0.928 0.214,1.788 0.641,2.581 0.428,0.792 1.011,1.413 1.749,1.861 0.739,0.449 1.538,0.673 2.397,0.673" /></g><g
           transform="translate(266.4233,340.5897)"
           id="g4267"><path
             id="path4269"
             style="fill:#92a5b1;fill-opacity:1;fill-rule:nonzero;stroke:none"
             d="M 0,0 V 9.659 H 0.2 L 6.322,2.255 V 9.659 H 7.229 V 0 H 7.022 L 0.951,7.313 V 0 Z" /></g><g
           transform="translate(282.6621,349.3031)"
           id="g4271"><path
             id="path4273"
             style="fill:#92a5b1;fill-opacity:1;fill-rule:nonzero;stroke:none"
             d="M 0,0 V 0.945 H 5.041 V 0 H 2.99 V -8.713 H 2.052 V 0 Z" /></g><g
           transform="translate(301.1328,349.5521)"
           id="g4275"><path
             id="path4277"
             style="fill:#92a5b1;fill-opacity:1;fill-rule:nonzero;stroke:none"
             d="m 0,0 c -0.681,0 -1.325,-0.187 -1.935,-0.558 -0.609,-0.373 -1.086,-0.875 -1.428,-1.505 -0.343,-0.631 -0.514,-1.334 -0.514,-2.11 0,-1.147 0.379,-2.117 1.137,-2.907 0.758,-0.791 1.671,-1.186 2.74,-1.186 0.714,0 1.375,0.181 1.982,0.544 0.608,0.365 1.081,0.862 1.423,1.493 0.339,0.631 0.509,1.331 0.509,2.103 0,0.766 -0.17,1.46 -0.509,2.08 -0.342,0.619 -0.82,1.115 -1.438,1.488 C 1.349,-0.187 0.693,0 0,0 m -0.04,0.939 c 1.393,0 2.559,-0.488 3.497,-1.464 0.939,-0.976 1.408,-2.178 1.408,-3.604 0,-1.414 -0.468,-2.614 -1.405,-3.599 -0.936,-0.985 -2.078,-1.478 -3.425,-1.478 -1.365,0 -2.516,0.491 -3.455,1.471 -0.938,0.981 -1.408,2.167 -1.408,3.559 0,0.928 0.215,1.788 0.642,2.581 0.427,0.792 1.01,1.413 1.748,1.861 0.739,0.449 1.538,0.673 2.398,0.673" /></g><g
           transform="translate(315.5273,350.2484)"
           id="g4279"><path
             id="path4281"
             style="fill:#92a5b1;fill-opacity:1;fill-rule:nonzero;stroke:none"
             d="m 0,0 h 0.919 v -8.727 h 3.54 V -9.659 H 0 Z" /></g><g
           transform="translate(333.5479,349.5521)"
           id="g4283"><path
             id="path4285"
             style="fill:#92a5b1;fill-opacity:1;fill-rule:nonzero;stroke:none"
             d="m 0,0 c -0.681,0 -1.325,-0.187 -1.935,-0.558 -0.609,-0.373 -1.086,-0.875 -1.428,-1.505 -0.343,-0.631 -0.514,-1.334 -0.514,-2.11 0,-1.147 0.379,-2.117 1.137,-2.907 0.758,-0.791 1.671,-1.186 2.74,-1.186 0.714,0 1.375,0.181 1.982,0.544 0.608,0.365 1.081,0.862 1.423,1.493 0.34,0.631 0.509,1.331 0.509,2.103 0,0.766 -0.169,1.46 -0.509,2.08 -0.342,0.619 -0.82,1.115 -1.438,1.488 C 1.349,-0.187 0.693,0 0,0 m -0.04,0.939 c 1.393,0 2.559,-0.488 3.497,-1.464 0.939,-0.976 1.408,-2.178 1.408,-3.604 0,-1.414 -0.468,-2.614 -1.405,-3.599 -0.936,-0.985 -2.078,-1.478 -3.425,-1.478 -1.365,0 -2.516,0.491 -3.455,1.471 -0.938,0.981 -1.408,2.167 -1.408,3.559 0,0.928 0.215,1.788 0.642,2.581 0.427,0.792 1.01,1.413 1.748,1.861 0.739,0.449 1.538,0.673 2.398,0.673" /></g><g
           transform="translate(356.8164,348.6263)"
           id="g4287"><path
             id="path4289"
             style="fill:#92a5b1;fill-opacity:1;fill-rule:nonzero;stroke:none"
             d="m 0,0 -0.714,-0.708 c -0.513,0.529 -1.074,0.93 -1.684,1.204 -0.611,0.273 -1.206,0.41 -1.786,0.41 -0.721,0 -1.408,-0.186 -2.061,-0.558 -0.652,-0.372 -1.157,-0.876 -1.516,-1.514 -0.358,-0.636 -0.537,-1.31 -0.537,-2.018 0,-0.727 0.185,-1.417 0.556,-2.072 0.37,-0.654 0.884,-1.169 1.538,-1.543 0.654,-0.375 1.372,-0.561 2.152,-0.561 0.946,0 1.746,0.28 2.401,0.84 0.654,0.561 1.042,1.288 1.163,2.18 h -2.933 v 0.932 H 0.543 C 0.535,-4.9 0.113,-6.085 -0.723,-6.963 -1.558,-7.841 -2.677,-8.28 -4.078,-8.28 c -1.7,0 -3.047,0.609 -4.039,1.826 -0.763,0.936 -1.145,2.019 -1.145,3.25 0,0.914 0.219,1.767 0.657,2.554 0.438,0.788 1.038,1.404 1.801,1.849 0.763,0.444 1.626,0.666 2.589,0.666 0.779,0 1.513,-0.147 2.2,-0.443 C -1.327,1.126 -0.655,0.653 0,0" /></g><path
           id="path4291"
           style="fill:#92a5b1;fill-opacity:1;fill-rule:nonzero;stroke:none"
           d="m 366.663,350.248 h 0.92 v -9.659 h -0.92 z" /><g
           transform="translate(381.0166,348.1957)"
           id="g4293"><path
             id="path4295"
             style="fill:#92a5b1;fill-opacity:1;fill-rule:nonzero;stroke:none"
             d="m 0,0 -1.577,-3.496 h 3.145 z m 0.115,2.053 4.29,-9.659 H 3.413 L 1.966,-4.428 H -1.997 L -3.43,-7.606 h -1.025 l 4.346,9.659 z" /></g></g></g></g></svg>