<?xml version="1.0" encoding="UTF-8" standalone="no"?>
<!-- Created with Inkscape (http://www.inkscape.org/) -->

<svg
   xmlns:dc="http://purl.org/dc/elements/1.1/"
   xmlns:cc="http://creativecommons.org/ns#"
   xmlns:rdf="http://www.w3.org/1999/02/22-rdf-syntax-ns#"
   xmlns:svg="http://www.w3.org/2000/svg"
   xmlns="http://www.w3.org/2000/svg"
   xmlns:sodipodi="http://sodipodi.sourceforge.net/DTD/sodipodi-0.dtd"
   xmlns:inkscape="http://www.inkscape.org/namespaces/inkscape"
   version="1.1"
   id="svg4356"
   xml:space="preserve"
   width="370"
   height="370"
   viewBox="0 0 370 369.99999"
   sodipodi:docname="Mazzoleni_logo_dark_background.svg"
   inkscape:version="0.92.5 (2060ec1f9f, 2020-04-08)"><metadata
     id="metadata4362"><rdf:RDF><cc:Work
         rdf:about=""><dc:format>image/svg+xml</dc:format><dc:type
           rdf:resource="http://purl.org/dc/dcmitype/StillImage" /><dc:title></dc:title></cc:Work></rdf:RDF></metadata><defs
     id="defs4360"><clipPath
       clipPathUnits="userSpaceOnUse"
       id="clipPath4374"><path
         d="M 0,841.89 H 595.28 V 0 H 0 Z"
         id="path4372"
         inkscape:connector-curvature="0" /></clipPath></defs><sodipodi:namedview
     pagecolor="#ffffff"
     bordercolor="#666666"
     borderopacity="1"
     objecttolerance="10"
     gridtolerance="10"
     guidetolerance="10"
     inkscape:pageopacity="0"
     inkscape:pageshadow="2"
     inkscape:window-width="1848"
     inkscape:window-height="1016"
     id="namedview4358"
     showgrid="false"
     inkscape:zoom="1.6819299"
     inkscape:cx="182.98307"
     inkscape:cy="144.54235"
     inkscape:window-x="72"
     inkscape:window-y="27"
     inkscape:window-maximized="1"
     inkscape:current-layer="g4364" /><g
     id="g4364"
     inkscape:groupmode="layer"
     inkscape:label="Mazzoleni logo brancofundo azul"
     transform="matrix(1.3333333,0,0,-1.3333333,0,369.99998)"><path
       d="M 0,277.49999 H 277.50001 V -1.5e-5 H 0 Z"
       style="fill:#1c3f5e;fill-opacity:1;fill-rule:nonzero;stroke:none;stroke-width:1.10085285"
       id="path4366"
       inkscape:connector-curvature="0" /><g
       id="g4368"
       transform="translate(-158.78437,-282.75694)"><g
         id="g4370"
         clip-path="url(#clipPath4374)"><g
           id="g4376"
           transform="translate(306.4722,449.5092)"><path
             d="m 0,0 c -1.6,-3.921 -3.129,-7.811 -4.477,-11.286 0.245,0.056 0.492,0.103 0.735,0.165 C 3.825,-9.177 9.272,-4.308 13.169,1.09 9.867,0.414 6.152,-0.047 2.116,-0.06 1.404,-0.062 0.703,-0.026 0,0"
             style="fill:#ffffff;fill-opacity:1;fill-rule:nonzero;stroke:none"
             id="path4378"
             inkscape:connector-curvature="0" /></g><g
           id="g4380"
           transform="translate(335.646,459.1703)"><path
             d="m 0,0 c -0.064,-1.226 -0.251,-2.763 -0.251,-2.763 0,0 -4.936,-3.093 -12.945,-5.155 -4.146,-6.972 -10.88,-13.685 -21.665,-16.164 -2.153,-5.593 -3.623,-9.498 -3.765,-9.524 -0.111,0.137 0.64,3.637 2.227,9.21 -0.561,-0.104 -1.117,-0.215 -1.699,-0.297 -18.235,-2.548 -36.868,6.467 -36.868,6.467 0,0 -0.097,1.236 -0.284,2.792 -0.188,1.556 -0.299,2.812 -0.299,2.812 0,0 22.024,-11.722 40.051,-8.692 1.034,3.443 2.323,7.452 3.856,11.802 -15.425,1.283 -27.914,8.72 -27.914,8.938 0.429,0.124 13.768,-6.269 28.847,-6.334 2.485,6.82 5.543,14.341 9.162,21.804 4.786,9.869 12.767,17.095 18.542,19.982 0,0 0.274,-1.571 0.461,-2.682 0.189,-1.112 0.419,-2.598 0.419,-2.598 0,0 -7.855,-2.862 -16.913,-17.504 -2.592,-4.19 -5.858,-11.44 -8.978,-18.945 1.912,0.093 3.839,0.271 5.764,0.613 3.408,0.605 6.557,1.601 9.423,2.735 4.251,7.817 5.705,15.22 5.943,15.328 0.174,-0.142 -0.351,-6.752 -3.578,-14.337 4.691,2.103 8.376,4.469 10.514,5.91 C 0.05,3.398 0.1,1.921 0,0 m -0.819,39.746 c 0,0 -17.319,3.953 -37.293,3.953 -0.256,0 -0.735,-10e-4 -0.735,-10e-4 -22.321,-0.072 -40.428,-18.156 -40.509,-40.479 -0.001,-0.254 -0.002,-0.51 -0.002,-0.766 0,-19.974 3.954,-37.292 3.954,-37.292 0,0 17.319,-3.954 37.292,-3.954 0.257,0 0.735,10e-4 0.735,10e-4 22.322,0.072 40.429,18.156 40.51,40.479 10e-4,0.254 0.002,0.509 0.002,0.766 0,19.973 -3.954,37.293 -3.954,37.293"
             style="fill:#ffffff;fill-opacity:1;fill-rule:nonzero;stroke:none"
             id="path4382"
             inkscape:connector-curvature="0" /></g><g
           id="g4384"
           transform="translate(204.668,367.3329)"><path
             d="M 0,0 C -0.362,0 -0.68,0.333 -0.68,0.711 V 15.22 L -8.062,6.36 C -8.258,6.163 -8.455,6.077 -8.654,6.077 c -0.316,0 -0.54,0.11 -0.661,0.294 l -7.407,8.882 V 0.711 C -16.722,0.313 -17.021,0 -17.404,0 c -0.386,0 -0.712,0.326 -0.712,0.711 v 16.616 c 0,0.372 0.339,0.711 0.712,0.711 0.036,0 0.114,0 0.199,-0.04 0.136,-0.028 0.247,-0.102 0.341,-0.163 l 0.085,-0.079 8.093,-9.82 8.096,9.82 c 0.095,0.098 0.226,0.208 0.393,0.242 0.085,0.04 0.161,0.04 0.197,0.04 0.441,0 0.712,-0.368 0.712,-0.711 V 0.711 C 0.712,0.305 0.407,0 0,0"
             style="fill:#ffffff;fill-opacity:1;fill-rule:nonzero;stroke:none"
             id="path4386"
             inkscape:connector-curvature="0" /></g><g
           id="g4388"
           transform="translate(227.665,381.7792)"><path
             d="m 0,0 c -3.367,0 -6.107,-2.922 -6.107,-6.512 0,-3.606 2.74,-6.541 6.107,-6.541 3.367,0 6.105,2.935 6.105,6.541 C 6.105,-2.922 3.367,0 0,0 m 6.818,-14.446 c -0.421,0 -0.713,0.292 -0.713,0.711 v 2.634 C 4.711,-13.19 2.463,-14.446 0,-14.446 c -4.136,0 -7.5,3.559 -7.5,7.934 0,4.377 3.364,7.937 7.5,7.937 2.412,0 4.703,-1.287 6.105,-3.361 v 2.647 c 0,0.346 0.286,0.714 0.713,0.714 0.401,0 0.681,-0.377 0.681,-0.714 v -14.446 c 0,-0.412 -0.287,-0.711 -0.681,-0.711"
             style="fill:#ffffff;fill-opacity:1;fill-rule:nonzero;stroke:none"
             id="path4390"
             inkscape:connector-curvature="0" /></g><g
           id="g4392"
           transform="translate(260.8662,382.5243)"><path
             d="M 0,0 -0.002,-0.002 Z M -0.019,-0.076 V -0.095 Z M 0.546,-0.282 0.544,-0.284 Z m -0.662,-14.909 h -10.556 c -0.081,0 -0.208,0 -0.318,0.076 -0.078,0.04 -0.153,0.08 -0.212,0.137 -0.258,0.265 -0.258,0.674 0,0.935 l 9.701,13.298 h -9.171 c -0.382,0 -0.68,0.313 -0.68,0.711 0,0.337 0.279,0.714 0.68,0.714 H -0.209 C 0.041,0.68 0.159,0.629 0.305,0.532 0.481,0.417 0.538,0.248 0.576,0.136 L 0.595,0.03 0.549,-0.282 C 0.498,-0.447 0.394,-0.548 0.32,-0.625 l -9.639,-13.173 h 9.203 c 0.391,0 0.711,-0.305 0.711,-0.682 0,-0.419 -0.292,-0.711 -0.711,-0.711"
             style="fill:#ffffff;fill-opacity:1;fill-rule:nonzero;stroke:none"
             id="path4394"
             inkscape:connector-curvature="0" /></g><g
           id="g4396"
           transform="translate(287.4463,382.5243)"><path
             d="M 0,0 -0.002,-0.002 Z M -0.019,-0.076 V -0.095 Z M 0.546,-0.282 0.544,-0.284 Z m -0.663,-14.909 h -10.556 c -0.08,0 -0.207,0 -0.317,0.076 -0.079,0.04 -0.153,0.08 -0.212,0.137 -0.258,0.265 -0.258,0.674 0,0.935 l 9.701,13.298 h -9.172 c -0.381,0 -0.68,0.313 -0.68,0.711 0,0.337 0.28,0.714 0.68,0.714 H -0.21 C 0.04,0.68 0.159,0.629 0.305,0.532 0.48,0.417 0.538,0.248 0.576,0.136 L 0.595,0.03 0.548,-0.282 C 0.498,-0.447 0.394,-0.548 0.32,-0.625 l -9.639,-13.173 h 9.202 c 0.392,0 0.712,-0.305 0.712,-0.682 0,-0.419 -0.292,-0.711 -0.712,-0.711"
             style="fill:#ffffff;fill-opacity:1;fill-rule:nonzero;stroke:none"
             id="path4398"
             inkscape:connector-curvature="0" /></g><g
           id="g4400"
           transform="translate(309.8926,381.8109)"><path
             d="m 0,0 c -3.367,0 -6.107,-2.935 -6.107,-6.543 0,-3.607 2.74,-6.541 6.107,-6.541 3.384,0 6.137,2.934 6.137,6.541 C 6.137,-2.935 3.384,0 0,0 m 0,-14.478 c -4.136,0 -7.5,3.56 -7.5,7.935 0,4.376 3.364,7.936 7.5,7.936 4.152,0 7.53,-3.56 7.53,-7.936 0,-4.375 -3.378,-7.935 -7.53,-7.935"
             style="fill:#ffffff;fill-opacity:1;fill-rule:nonzero;stroke:none"
             id="path4402"
             inkscape:connector-curvature="0" /></g><g
           id="g4404"
           transform="translate(332.8257,367.3329)"><path
             d="m 0,0 c -0.407,0 -0.711,0.305 -0.711,0.711 v 17.344 c 0,0.406 0.304,0.711 0.711,0.711 0.383,0 0.682,-0.313 0.682,-0.711 V 0.711 C 0.682,0.313 0.383,0 0,0"
             style="fill:#ffffff;fill-opacity:1;fill-rule:nonzero;stroke:none"
             id="path4406"
             inkscape:connector-curvature="0" /></g><g
           id="g4408"
           transform="translate(350.7681,376.4154)"><path
             d="M 0,0 H 12.428 C 11.9,3.081 9.298,5.364 6.245,5.364 3.157,5.364 0.529,3.081 0,0 m 6.245,-9.083 c -4.265,0.064 -7.653,3.547 -7.717,7.931 v 0.008 c 0.064,4.449 3.454,7.933 7.717,7.933 4.05,0 7.326,-3.147 7.623,-7.323 L 13.864,-0.729 C 13.815,-1.04 13.548,-1.362 13.188,-1.362 H -0.076 c 0.11,-3.481 2.905,-6.3 6.323,-6.327 2.119,0 4.07,1.109 5.215,2.967 0.205,0.303 0.557,0.385 0.945,0.214 0.182,-0.106 0.288,-0.257 0.328,-0.432 0.042,-0.189 0.006,-0.39 -0.1,-0.549 -1.431,-2.215 -3.881,-3.594 -6.39,-3.594"
             style="fill:#ffffff;fill-opacity:1;fill-rule:nonzero;stroke:none"
             id="path4410"
             inkscape:connector-curvature="0" /></g><g
           id="g4412"
           transform="translate(390.877,367.3329)"><path
             d="m 0,0 c -0.394,0 -0.68,0.299 -0.68,0.711 v 8.687 c 0,2.801 -2.266,5.08 -5.048,5.08 -2.802,0 -5.08,-2.279 -5.08,-5.08 V 0.711 c 0,-0.179 -0.066,-0.349 -0.182,-0.465 C -11.079,0.104 -11.27,0 -11.488,0 h -0.127 l -0.165,0.068 c -0.116,0.025 -0.193,0.101 -0.24,0.146 l -0.099,0.15 c -0.053,0.085 -0.083,0.189 -0.083,0.286 v 14.539 c 0,0.396 0.301,0.682 0.714,0.682 0.4,0 0.68,-0.279 0.68,-0.682 V 13.4 c 1.217,1.546 3.085,2.471 5.08,2.471 3.551,0 6.439,-2.903 6.439,-6.473 V 0.711 C 0.711,0.326 0.385,0 0,0"
             style="fill:#ffffff;fill-opacity:1;fill-rule:nonzero;stroke:none"
             id="path4414"
             inkscape:connector-curvature="0" /></g><g
           id="g4416"
           transform="translate(407.8345,385.3724)"><path
             d="m 0,0 c -0.398,0 -0.711,0.298 -0.711,0.682 v 0.745 c 0,0.419 0.292,0.714 0.711,0.714 0.377,0 0.682,-0.32 0.682,-0.714 V 0.682 C 0.682,0.324 0.358,0 0,0 m 0,-18.04 c -0.407,0 -0.711,0.306 -0.711,0.712 v 13.244 c 0,0.408 0.285,0.682 0.711,0.682 0.39,0 0.682,-0.293 0.682,-0.682 V -17.328 C 0.682,-17.707 0.364,-18.04 0,-18.04"
             style="fill:#ffffff;fill-opacity:1;fill-rule:nonzero;stroke:none"
             id="path4418"
             inkscape:connector-curvature="0" /></g><g
           id="g4420"
           transform="translate(214.7905,349.3993)"><path
             d="m 0,0 c -0.685,0 -1.333,-0.187 -1.945,-0.561 -0.614,-0.375 -1.093,-0.879 -1.436,-1.513 -0.345,-0.634 -0.517,-1.342 -0.517,-2.121 0,-1.154 0.381,-2.129 1.143,-2.923 0.762,-0.795 1.68,-1.193 2.755,-1.193 0.717,0 1.382,0.183 1.993,0.548 0.611,0.367 1.087,0.866 1.43,1.5 0.342,0.635 0.512,1.339 0.512,2.115 0,0.77 -0.17,1.468 -0.512,2.091 C 3.08,-1.435 2.599,-0.936 1.978,-0.561 1.356,-0.187 0.697,0 0,0 m -0.041,0.944 c 1.401,0 2.573,-0.49 3.517,-1.472 0.944,-0.981 1.415,-2.19 1.415,-3.623 0,-1.422 -0.47,-2.628 -1.412,-3.618 -0.941,-0.991 -2.09,-1.486 -3.444,-1.486 -1.372,0 -2.529,0.493 -3.473,1.479 -0.944,0.985 -1.416,2.178 -1.416,3.578 0,0.933 0.215,1.797 0.645,2.594 0.43,0.797 1.016,1.421 1.758,1.872 0.743,0.451 1.546,0.676 2.41,0.676"
             style="fill:#ffffff;fill-opacity:1;fill-rule:nonzero;stroke:none"
             id="path4422"
             inkscape:connector-curvature="0" /></g><g
           id="g4424"
           transform="translate(230.1489,341.306)"><path
             d="M 0,0 H 1.068 C 2.347,0 3.233,0.084 3.728,0.25 4.424,0.489 4.971,0.917 5.369,1.534 5.768,2.151 5.967,2.907 5.967,3.8 5.967,4.736 5.75,5.536 5.318,6.201 4.887,6.865 4.285,7.319 3.515,7.565 2.936,7.751 1.982,7.843 0.654,7.843 H 0 Z m -0.886,-0.917 v 9.71 h 1.917 c 1.384,0 2.386,-0.117 3.012,-0.35 C 4.939,8.113 5.641,7.542 6.146,6.727 6.651,5.913 6.904,4.943 6.904,3.816 6.904,2.843 6.703,1.987 6.303,1.248 5.902,0.508 5.383,-0.037 4.744,-0.389 4.104,-0.741 3.208,-0.917 2.056,-0.917 Z"
             style="fill:#ffffff;fill-opacity:1;fill-rule:nonzero;stroke:none"
             id="path4426"
             inkscape:connector-curvature="0" /></g><g
           id="g4428"
           transform="translate(251.0142,349.3993)"><path
             d="m 0,0 c -0.684,0 -1.333,-0.187 -1.945,-0.561 -0.613,-0.375 -1.093,-0.879 -1.436,-1.513 -0.345,-0.634 -0.517,-1.342 -0.517,-2.121 0,-1.154 0.381,-2.129 1.143,-2.923 0.762,-0.795 1.68,-1.193 2.755,-1.193 0.718,0 1.382,0.183 1.993,0.548 0.611,0.367 1.088,0.866 1.43,1.5 0.342,0.635 0.513,1.339 0.513,2.115 0,0.77 -0.171,1.468 -0.513,2.091 C 3.081,-1.435 2.599,-0.936 1.978,-0.561 1.356,-0.187 0.697,0 0,0 m -0.04,0.944 c 1.401,0 2.573,-0.49 3.516,-1.472 0.944,-0.981 1.415,-2.19 1.415,-3.623 0,-1.422 -0.47,-2.628 -1.412,-3.618 C 2.538,-8.76 1.39,-9.255 0.035,-9.255 c -1.371,0 -2.529,0.493 -3.473,1.479 -0.943,0.985 -1.416,2.178 -1.416,3.578 0,0.933 0.216,1.797 0.646,2.594 0.429,0.797 1.015,1.421 1.757,1.872 0.743,0.451 1.546,0.676 2.411,0.676"
             style="fill:#ffffff;fill-opacity:1;fill-rule:nonzero;stroke:none"
             id="path4430"
             inkscape:connector-curvature="0" /></g><g
           id="g4432"
           transform="translate(265.4917,340.389)"><path
             d="M 0,0 V 9.71 H 0.201 L 6.356,2.267 V 9.71 H 7.268 V 0 H 7.06 L 0.956,7.353 V 0 Z"
             style="fill:#ffffff;fill-opacity:1;fill-rule:nonzero;stroke:none"
             id="path4434"
             inkscape:connector-curvature="0" /></g><g
           id="g4436"
           transform="translate(281.8184,349.1488)"><path
             d="M 0,0 V 0.951 H 5.068 V 0 H 3.005 V -8.76 H 2.062 V 0 Z"
             style="fill:#ffffff;fill-opacity:1;fill-rule:nonzero;stroke:none"
             id="path4438"
             inkscape:connector-curvature="0" /></g><g
           id="g4440"
           transform="translate(300.3882,349.3993)"><path
             d="m 0,0 c -0.684,0 -1.333,-0.187 -1.945,-0.561 -0.613,-0.375 -1.093,-0.879 -1.436,-1.513 -0.345,-0.634 -0.517,-1.342 -0.517,-2.121 0,-1.154 0.381,-2.129 1.143,-2.923 0.762,-0.795 1.68,-1.193 2.755,-1.193 0.718,0 1.382,0.183 1.993,0.548 0.611,0.367 1.087,0.866 1.43,1.5 0.342,0.635 0.513,1.339 0.513,2.115 0,0.77 -0.171,1.468 -0.513,2.091 C 3.08,-1.435 2.599,-0.936 1.978,-0.561 1.356,-0.187 0.697,0 0,0 m -0.041,0.944 c 1.401,0 2.574,-0.49 3.517,-1.472 0.944,-0.981 1.415,-2.19 1.415,-3.623 0,-1.422 -0.47,-2.628 -1.412,-3.618 C 2.538,-8.76 1.39,-9.255 0.035,-9.255 c -1.371,0 -2.529,0.493 -3.473,1.479 -0.943,0.985 -1.416,2.178 -1.416,3.578 0,0.933 0.216,1.797 0.646,2.594 0.429,0.797 1.015,1.421 1.757,1.872 0.743,0.451 1.546,0.676 2.41,0.676"
             style="fill:#ffffff;fill-opacity:1;fill-rule:nonzero;stroke:none"
             id="path4442"
             inkscape:connector-curvature="0" /></g><g
           id="g4444"
           transform="translate(314.8604,350.0995)"><path
             d="M 0,0 H 0.925 V -8.773 H 4.483 V -9.71 H 0 Z"
             style="fill:#ffffff;fill-opacity:1;fill-rule:nonzero;stroke:none"
             id="path4446"
             inkscape:connector-curvature="0" /></g><g
           id="g4448"
           transform="translate(332.978,349.3993)"><path
             d="m 0,0 c -0.685,0 -1.333,-0.187 -1.945,-0.561 -0.613,-0.375 -1.093,-0.879 -1.436,-1.513 -0.345,-0.634 -0.517,-1.342 -0.517,-2.121 0,-1.154 0.381,-2.129 1.143,-2.923 0.762,-0.795 1.68,-1.193 2.755,-1.193 0.717,0 1.382,0.183 1.993,0.548 0.611,0.367 1.087,0.866 1.43,1.5 0.342,0.635 0.513,1.339 0.513,2.115 0,0.77 -0.171,1.468 -0.513,2.091 C 3.08,-1.435 2.599,-0.936 1.978,-0.561 1.356,-0.187 0.697,0 0,0 m -0.041,0.944 c 1.401,0 2.574,-0.49 3.517,-1.472 0.944,-0.981 1.415,-2.19 1.415,-3.623 0,-1.422 -0.47,-2.628 -1.412,-3.618 C 2.538,-8.76 1.39,-9.255 0.035,-9.255 c -1.371,0 -2.529,0.493 -3.473,1.479 -0.944,0.985 -1.416,2.178 -1.416,3.578 0,0.933 0.216,1.797 0.646,2.594 0.429,0.797 1.015,1.421 1.757,1.872 0.743,0.451 1.546,0.676 2.41,0.676"
             style="fill:#ffffff;fill-opacity:1;fill-rule:nonzero;stroke:none"
             id="path4450"
             inkscape:connector-curvature="0" /></g><g
           id="g4452"
           transform="translate(356.3721,348.4686)"><path
             d="m 0,0 -0.718,-0.712 c -0.515,0.532 -1.079,0.936 -1.694,1.211 -0.613,0.274 -1.212,0.412 -1.795,0.412 -0.725,0 -1.415,-0.187 -2.072,-0.561 -0.655,-0.374 -1.163,-0.881 -1.524,-1.522 -0.36,-0.64 -0.54,-1.317 -0.54,-2.029 0,-0.731 0.186,-1.425 0.559,-2.083 0.373,-0.658 0.888,-1.175 1.547,-1.551 0.657,-0.377 1.379,-0.564 2.163,-0.564 0.951,0 1.756,0.281 2.414,0.844 0.658,0.563 1.048,1.294 1.169,2.192 h -2.948 v 0.937 h 3.985 c -0.008,-1.5 -0.432,-2.692 -1.273,-3.575 -0.84,-0.882 -1.964,-1.323 -3.373,-1.323 -1.71,0 -3.064,0.612 -4.061,1.836 -0.767,0.941 -1.151,2.03 -1.151,3.267 0,0.92 0.22,1.776 0.66,2.568 0.441,0.792 1.044,1.411 1.811,1.858 0.767,0.446 1.635,0.67 2.603,0.67 0.784,0 1.521,-0.148 2.213,-0.445 C -1.334,1.133 -0.659,0.657 0,0"
             style="fill:#ffffff;fill-opacity:1;fill-rule:nonzero;stroke:none"
             id="path4454"
             inkscape:connector-curvature="0" /></g><path
           d="m 366.272,350.099 h 0.924 v -9.71 h -0.924 z"
           style="fill:#ffffff;fill-opacity:1;fill-rule:nonzero;stroke:none"
           id="path4456"
           inkscape:connector-curvature="0" /><g
           id="g4458"
           transform="translate(380.7026,348.036)"><path
             d="m 0,0 -1.585,-3.515 h 3.162 z m 0.116,2.063 4.313,-9.71 H 3.431 l -1.454,3.195 h -3.984 l -1.442,-3.195 h -1.03 l 4.369,9.71 z"
             style="fill:#ffffff;fill-opacity:1;fill-rule:nonzero;stroke:none"
             id="path4460"
             inkscape:connector-curvature="0" /></g></g></g></g></svg>